# xmcd
#
# Track frame offsets:
#	150
#	17307
#	31212
#	49337
#	64687
#	84585
#	102082
#	118670
#	136062
#	154550
#	167077
#	181585
#
# Disc length: 2619 seconds
#
# Revision: 0
# Processed by: cddbd v1.4PL0 Copyright (c) Steve Scherf et al.
# Submitted via: EasyCDDAExtractor 4.6.0.1
#
DISCID=860a390c
DTITLE=Edson and Hudson - No Limite da Saudade
DYEAR=1900
DGENRE=Sertanejo
TTITLE0=Jura
TTITLE1=Zoião
TTITLE2=No Limite da Saudade
TTITLE3=Anjo Loiro
TTITLE4=Você é Tudo Que Eu Preciso
TTITLE5=Coração de Mulher
TTITLE6=Deixa Eu Te Amar
TTITLE7=Fogo do Desejo
TTITLE8=Pra Enganar Meu Coração
TTITLE9=A Matogrossense
TTITLE10=Bye, Bye Tristeza
TTITLE11=Chora Viola
EXTD=
EXTT0=
EXTT1=
EXTT2=
EXTT3=
EXTT4=
EXTT5=
EXTT6=
EXTT7=
EXTT8=
EXTT9=
EXTT10=
EXTT11=
PLAYORDER=
